<?xml version="1.0" encoding="UTF-8" standalone="no"?>
<!DOCTYPE svg PUBLIC "-//W3C//DTD SVG 1.1//EN" "http://www.w3.org/Graphics/SVG/1.1/DTD/svg11.dtd">
<svg width="100%" height="100%" viewBox="0 0 98 98" version="1.1" xmlns="http://www.w3.org/2000/svg" xmlns:xlink="http://www.w3.org/1999/xlink" xml:space="preserve" xmlns:serif="http://www.serif.com/" style="fill-rule:evenodd;clip-rule:evenodd;stroke-linecap:round;stroke-linejoin:round;stroke-miterlimit:1.5;">
    <rect id="ArtBoard1" x="0" y="0" width="98" height="98" style="fill:none;"/>
    <g id="ArtBoard11" serif:id="ArtBoard1">
        <g transform="matrix(0.921849,0,0,0.921849,3.82941,-0.343641)">
            <g transform="matrix(1.02796,0,0,1.22506,-1.65618,-4.06049)">
                <path d="M49.278,59.337L80.541,68.627L49.278,87.92L18.016,68.627L49.278,59.337Z" style="fill:rgb(145,82,58);stroke:black;stroke-width:0.96px;"/>
            </g>
            <g transform="matrix(1.36197,0,0,1.44198,-18.1157,-35.9681)">
                <path d="M49.278,59.337L80.394,67.635L49.278,90.31L18.163,67.635L49.278,59.337Z" style="fill:rgb(145,82,58);stroke:black;stroke-width:0.77px;"/>
            </g>
            <g>
                <g transform="matrix(0.96681,0,0,4.43525,-1.32099,-307.698)">
                    <path d="M52.048,83.473L68.021,85.006L52.048,89.603L36.076,85.006L52.048,83.473Z" style="fill:rgb(191,140,110);stroke:black;stroke-width:0.34px;"/>
                </g>
                <g transform="matrix(0.96681,0,0,2.05635,-0.58569,-73.4681)">
                    <ellipse cx="51.288" cy="58.721" rx="27.796" ry="16.014" style="fill:rgb(226,168,125);stroke:black;stroke-width:0.68px;"/>
                </g>
            </g>
            <g transform="matrix(1.7029,-0.0018497,0.0108699,1.57611,-39.6799,-0.954913)">
                <path d="M69,23.045L34.835,23.045C34.835,23.045 39.652,10.763 42.051,4.647C42.371,3.832 43.001,3.213 43.773,2.953C44.546,2.693 45.383,2.818 46.064,3.296C51.591,7.304 54.621,7.982 58.669,3.491C59.094,3.044 59.692,2.854 60.27,2.982C60.847,3.111 61.33,3.542 61.563,4.136C63.898,10.036 69,23.045 69,23.045Z" style="fill:rgb(145,82,58);stroke:black;stroke-width:0.66px;"/>
            </g>
            <g transform="matrix(-0.0108699,-1.57611,2.80526,-0.0030471,-57.1452,85.5151)">
                <path d="M31.806,23.045C29.158,23.045 27.009,29.729 27.009,37.961C27.009,46.194 29.158,52.878 31.806,52.878C33.129,50.391 34.204,44.563 34.204,37.961C34.204,31.359 33.129,25.531 31.806,23.045Z" style="fill:rgb(145,82,58);stroke:black;stroke-width:0.48px;"/>
            </g>
            <g transform="matrix(1.55144,-0.00168519,0.0108699,1.57611,-29.3434,0.705057)">
                <path d="M66.82,16.736L33.848,16.718L32.232,20.472L68.428,20.469L66.82,16.736Z" style="fill:rgb(191,140,110);stroke:black;stroke-width:0.69px;"/>
            </g>
            <g transform="matrix(0.96681,0,0,0.96681,-0.826215,-0.49007)">
                <g transform="matrix(8.38439e-17,1.38376,-2.65526,1.6148e-16,185.078,-12.7301)">
                    <path d="M46.792,47.448C46.982,47.25 46.861,47.009 46.51,46.884C46.159,46.759 45.685,46.787 45.399,46.951C44.156,47.678 43.361,48.857 43.361,50.186C43.361,51.787 44.515,53.172 46.186,53.823C46.449,53.927 46.816,53.918 47.058,53.801C47.301,53.685 47.349,53.495 47.173,53.35C46.381,52.55 45.851,51.418 45.851,50.186C45.851,49.16 46.218,48.204 46.792,47.448Z" style="fill:rgb(191,140,110);stroke:black;stroke-width:0.53px;"/>
                </g>
                <g transform="matrix(1.37341,0,0,1.36339,-9.25112,-21.9983)">
                    <path d="M33.955,49C37.848,49 41.008,52.183 41.008,56.105C41.008,60.026 37.848,63.209 33.955,63.209C30.063,63.209 26.902,60.026 26.902,56.105C26.902,52.183 30.063,49 33.955,49ZM33.955,52.552C35.901,52.552 37.481,54.144 37.481,56.105C37.481,58.065 35.901,59.657 33.955,59.657C32.009,59.657 30.429,58.065 30.429,56.105C30.429,54.144 32.009,52.552 33.955,52.552Z" style="fill:rgb(191,140,110);stroke:black;stroke-width:0.82px;"/>
                </g>
                <g transform="matrix(1.37341,0,0,1.36339,19.0561,-21.9983)">
                    <path d="M33.955,49C37.848,49 41.008,52.183 41.008,56.105C41.008,60.026 37.848,63.209 33.955,63.209C30.063,63.209 26.902,60.026 26.902,56.105C26.902,52.183 30.063,49 33.955,49ZM33.955,52.552C35.901,52.552 37.481,54.144 37.481,56.105C37.481,58.065 35.901,59.657 33.955,59.657C32.009,59.657 30.429,58.065 30.429,56.105C30.429,54.144 32.009,52.552 33.955,52.552Z" style="fill:rgb(191,140,110);stroke:black;stroke-width:0.82px;"/>
                </g>
            </g>
        </g>
    </g>
</svg>
